<?xml version="1.0" encoding="utf-8"?>
<!-- Generator: Adobe Illustrator 26.0.2, SVG Export Plug-In . SVG Version: 6.00 Build 0)  -->
<svg version="1.1" id="Layer_1" xmlns="http://www.w3.org/2000/svg" xmlns:xlink="http://www.w3.org/1999/xlink" x="0px" y="0px"
	 viewBox="0 0 982.9 998.1" style="enable-background:new 0 0 982.9 998.1;" xml:space="preserve">
<style type="text/css">
	.st0{enable-background:new    ;}
	.st1{fill-rule:evenodd;clip-rule:evenodd;fill:#00FF00;}
	.st2{fill:none;stroke:#00FF00;stroke-width:30;stroke-miterlimit:99.9949;}
	.st3{fill:none;stroke:#00FF00;stroke-width:30;stroke-miterlimit:99.9964;}
	.st4{fill:none;stroke:#00FF00;stroke-width:30;stroke-miterlimit:99.9946;}
	.st5{fill:none;stroke:#00FF00;stroke-width:30;stroke-miterlimit:100.0165;}
	.st6{fill:none;stroke:#00FF00;stroke-width:30;stroke-miterlimit:99.9856;}
	.st7{fill:none;stroke:#00FF00;stroke-width:30;stroke-miterlimit:100.0108;}
	.st8{fill:none;stroke:#00FF00;stroke-width:30;stroke-miterlimit:99.9954;}
	.st9{fill:none;stroke:#00FF00;stroke-width:30;stroke-miterlimit:100.0087;}
	.st10{fill:none;stroke:#00FF00;stroke-width:30;stroke-miterlimit:100.0018;}
	.st11{fill:none;stroke:#00FF00;stroke-width:30;stroke-miterlimit:99.9958;}
	.st12{fill:none;stroke:#00FF00;stroke-width:30;stroke-miterlimit:100.0138;}
</style>
<g id="Green_Line_2_00000015348082057330012530000010349985709766392718_" class="st0">
	<g id="Green_Line_2">
		<g>
			
				<rect x="380.3" y="715.7" transform="matrix(0.6459 -0.7634 0.7634 0.6459 -286.3287 818.7479)" class="st1" width="718.3" height="4.6"/>
		</g>
		<g>
			
				<rect x="380.3" y="715.7" transform="matrix(0.6459 -0.7634 0.7634 0.6459 -286.3287 818.7479)" class="st2" width="718.3" height="4.6"/>
		</g>
	</g>
</g>
<g id="Green_Line_3_00000133505706826546321340000010070914638767695505_" class="st0">
	<g id="Green_Line_3">
		<g>
			
				<rect x="412.5" y="341.1" transform="matrix(0.9599 -0.2803 0.2803 0.9599 -171.6761 143.2109)" class="st1" width="4.6" height="661.3"/>
		</g>
		<g>
			
				<rect x="412.5" y="341.1" transform="matrix(0.9599 -0.2803 0.2803 0.9599 -171.6761 143.2109)" class="st3" width="4.6" height="661.3"/>
		</g>
	</g>
</g>
<g id="Green_Line_1_00000065769818739732009300000008475104006360839331_" class="st0">
	<g id="Green_Line_1">
		<g>
			
				<rect x="893" y="278.7" transform="matrix(0.6847 -0.7288 0.7288 0.6847 8.3192 771.0309)" class="st1" width="4.6" height="194.5"/>
		</g>
		<g>
			
				<rect x="893" y="278.7" transform="matrix(0.6847 -0.7288 0.7288 0.6847 8.3192 771.0309)" class="st4" width="4.6" height="194.5"/>
		</g>
	</g>
</g>
<g id="Green_Line_1_copy_2_00000164511930181036701290000001750972722518089346_" class="st0">
	<g id="Green_Line_1_copy_2">
		<g>
			
				<rect x="726" y="90.7" transform="matrix(0.6847 -0.7289 0.7289 0.6847 70.1913 599.8179)" class="st1" width="4.6" height="256.1"/>
		</g>
		<g>
			
				<rect x="726" y="90.7" transform="matrix(0.6847 -0.7289 0.7289 0.6847 70.1913 599.8179)" class="st5" width="4.6" height="256.1"/>
		</g>
	</g>
</g>
<g id="Green_Line_1_copy_00000013178236397968665500000012697586389691305868_" class="st0">
	<g id="Green_Line_1_copy">
		<g>
			
				<rect x="565.3" y="-14.5" transform="matrix(0.6847 -0.7289 0.7289 0.6847 129.5101 435.07)" class="st1" width="4.6" height="164.8"/>
		</g>
		<g>
			
				<rect x="565.3" y="-14.5" transform="matrix(0.6847 -0.7289 0.7289 0.6847 129.5101 435.07)" class="st5" width="4.6" height="164.8"/>
		</g>
	</g>
</g>
<g id="Green_Line_4_00000162331074052794871740000003106098413528630663_" class="st0">
	<g id="Green_Line_4">
		<g>
			
				<rect x="676.1" y="390.5" transform="matrix(0.9552 -0.2958 0.2958 0.9552 -136.4646 225.9197)" class="st1" width="4.6" height="347"/>
		</g>
		<g>
			
				<rect x="676.1" y="390.5" transform="matrix(0.9552 -0.2958 0.2958 0.9552 -136.4646 225.9197)" class="st6" width="4.6" height="347"/>
		</g>
	</g>
</g>
<g id="Green_Line_4_copy_00000149382391537471310560000005889227874497819793_" class="st0">
	<g id="Green_Line_4_copy">
		<g>
			
				<rect x="558.5" y="3.5" transform="matrix(0.9552 -0.2958 0.2958 0.9552 -29.3825 174.136)" class="st1" width="4.6" height="361.4"/>
		</g>
		<g>
			
				<rect x="558.5" y="3.5" transform="matrix(0.9552 -0.2958 0.2958 0.9552 -29.3825 174.136)" class="st6" width="4.6" height="361.4"/>
		</g>
	</g>
</g>
<g id="Green_Line_10_00000140695160677224935310000004794075886077723529_" class="st0">
	<g id="Green_Line_10">
		<g>
			
				<rect x="-129.9" y="307.8" transform="matrix(0.6461 -0.7633 0.7633 0.6461 -144.1374 305.7882)" class="st1" width="775" height="1"/>
		</g>
		<g>
			
				<rect x="-129.9" y="307.8" transform="matrix(0.6461 -0.7633 0.7633 0.6461 -144.1374 305.7882)" class="st7" width="775" height="1"/>
		</g>
	</g>
</g>
<g id="Green_Line_9_00000143580199939258396560000013410475573609783225_" class="st0">
	<g id="Green_Line_9">
		<g>
			
				<rect x="-33.4" y="477.7" transform="matrix(0.7826 -0.6225 0.6225 0.7826 -261.3159 208.0478)" class="st1" width="401.2" height="1"/>
		</g>
		<g>
			
				<rect x="-33.4" y="477.7" transform="matrix(0.7826 -0.6225 0.6225 0.7826 -261.3159 208.0478)" class="st8" width="401.2" height="1"/>
		</g>
	</g>
</g>
<g id="Green_Line_8_00000150071339322393764000000004472617965081982858_" class="st0">
	<g id="Green_Line_8">
		<g>
			
				<rect x="255" y="481.3" transform="matrix(0.6094 -0.7929 0.7929 0.6094 -531.3568 515.3468)" class="st1" width="4.6" height="631.2"/>
		</g>
		<g>
			
				<rect x="255" y="481.3" transform="matrix(0.6094 -0.7929 0.7929 0.6094 -531.3568 515.3468)" class="st9" width="4.6" height="631.2"/>
		</g>
	</g>
</g>
<g id="Green_Line_7_00000145017223638893197450000001516758206642239912_" class="st0">
	<g id="Green_Line_7">
		<g>
			
				<rect x="366.2" y="298.5" transform="matrix(0.1644 -0.9864 0.9864 0.1644 -347.9373 919.0731)" class="st1" width="4.6" height="732.8"/>
		</g>
		<g>
			
				<rect x="366.2" y="298.5" transform="matrix(0.1644 -0.9864 0.9864 0.1644 -347.9373 919.0731)" class="st10" width="4.6" height="732.8"/>
		</g>
	</g>
</g>
<g id="Green_Line_6_00000161609415483523365490000005433907595095903905_" class="st0">
	<g id="Green_Line_6">
		<g>
			
				<rect x="219.9" y="180.6" transform="matrix(0.4755 -0.8797 0.8797 0.4755 56.631 460.8581)" class="st1" width="389.8" height="4.6"/>
		</g>
		<g>
			
				<rect x="219.9" y="180.6" transform="matrix(0.4755 -0.8797 0.8797 0.4755 56.631 460.8581)" class="st11" width="389.8" height="4.6"/>
		</g>
	</g>
</g>
<g id="Green_Line_5_00000160172772244581418200000014117625100410790033_" class="st0">
	<g id="Green_Line_5">
		<g>
			
				<rect x="644.2" y="75.6" transform="matrix(0.1364 -0.9907 0.9907 0.1364 163.7176 984.4803)" class="st1" width="4.6" height="645.5"/>
		</g>
		<g>
			
				<rect x="644.2" y="75.6" transform="matrix(0.1364 -0.9907 0.9907 0.1364 163.7176 984.4803)" class="st12" width="4.6" height="645.5"/>
		</g>
	</g>
</g>
<g id="Green_Line_4_00000122689092254444811910000008817826977717854898_" class="st0">
	<g id="Green_Line_4_00000083066524507351956050000018116725063655399342_">
		<g>
			
				<rect x="624.6" y="224.9" transform="matrix(0.9552 -0.2958 0.2958 0.9552 -89.7849 203.274)" class="st1" width="4.6" height="347"/>
		</g>
		<g>
			
				<rect x="624.6" y="224.9" transform="matrix(0.9552 -0.2958 0.2958 0.9552 -89.7849 203.274)" class="st6" width="4.6" height="347"/>
		</g>
	</g>
</g>
</svg>
