<svg xmlns="http://www.w3.org/2000/svg" viewBox="0 0 486 486"><rect width="486" height="486" rx="80" style="fill:#fff"/><path d="M124.41553,147.32812l1.07617,25.82715q25.6106-30.13036,69.08789-30.13183,48.85473,0,66.50439,37.44922a88.21586,88.21586,0,0,1,30.24024-27.11817q18.6123-10.3308,44.01367-10.33105,76.61719,0,77.91211,81.14062V380.20312H373.43359V226.53125q0-24.96461-11.4082-37.3418-11.41113-12.37353-38.31055-12.37549-22.16894,0-36.80273,13.23633-14.63966,13.23707-17.00391,35.62012V380.20312H229.87646V227.60742q0-50.792-49.71728-50.79346-39.17431,0-53.59131,33.36036v170.0288H86.751v-232.875Z" transform="translate(-7 -7)" style="fill:#191717"/></svg>