<?xml version="1.0" encoding="utf-8"?>
<!-- Generator: Adobe Illustrator 19.2.1, SVG Export Plug-In . SVG Version: 6.00 Build 0)  -->
<svg version="1.1" id="Layer_1" xmlns="http://www.w3.org/2000/svg" xmlns:xlink="http://www.w3.org/1999/xlink" x="0px" y="0px"
	 viewBox="0 0 400 400" style="enable-background:new 0 0 400 400;" xml:space="preserve">
<style type="text/css">
	.st0{clip-path:url(#SVGID_2_);}
	.st1{display:none;fill:#211D1C;}
	.st2{display:none;opacity:0.2;}
	.st3{fill:#FFFFFF;}
</style>
<g>
	<defs>
		<circle id="SVGID_1_" cx="200" cy="200" r="184.7"/>
	</defs>
	<clipPath id="SVGID_2_">
		<use xlink:href="#SVGID_1_"  style="overflow:visible;"/>
	</clipPath>
	<g class="st0">
		<path class="st1" d="M305.4,145.9c-13.4-3.5-27.2-5.7-40.9-7.7c-13.6-1.9-27.4-3.5-41.1-4c-15.9-0.6-31.9-0.4-47.8,0.6
			c-8.6,0.5-16,5.2-18.7,14.2c-2.4,8.3-4.9,16.8-5.3,25.4c-0.8,17-0.5,34-0.1,51c0.3,13.6,6.7,21.1,20.3,22.8
			c11.4,1.5,64.7,0,79.8-1.2c16.3-1.3,32.6-2.9,48.8-5.3c13-2,22.1-11.9,22.7-23.9c0.8-15.7,1.3-31.4,1.3-47.2
			C324.2,156,319.6,149.5,305.4,145.9z M243.1,227.5c-0.7,2.6-3.8,3.4-5.9,1.6c-3-2.5-5.9-5-8.9-7.6c-4.9-4.2-15.8-13.1-16.3-13.1
			c-6.6,0-23.8-0.6-24.7-2.8c0-9.6,0-19.3,0-28.9c0.8-2.2,2.3-2.9,4.6-2.9c6.8,0.1,13.6,0,20.4,0c0.7,0,1.2-0.2,1.8-0.7
			c7.6-6.5,15.2-13,22.7-19.4c0.8-0.7,1.7-1.3,2.9-1.2c1.9,0,3.4,1.5,3.5,3.4c0,0.3,0,0.6,0,1c0,22.9,0,45.9,0,68.8
			C243.2,226.3,243.2,226.9,243.1,227.5z M250.4,209.8c-1.8-1.1-2.2-3.2-1.1-5.1c5.2-8.9,5.1-17.8-0.1-26.7c-1.2-2-0.7-4.1,1.1-5.2
			c1.8-1.1,3.9-0.5,5.1,1.5c3.3,5.2,4.9,11,5,17.1c0,6.1-1.6,11.7-4.9,17C254.4,210.3,252.2,210.9,250.4,209.8z M263.4,220.4
			c-1.5,0.3-3-0.3-3.8-1.5c-0.9-1.3-0.8-2.7,0.1-4.2c1.5-2.4,3.2-4.8,4.3-7.4c5.8-13.7,4.4-26.7-4.1-38.9c-0.4-0.6-0.8-1.2-0.9-1.9
			c-0.4-1.7,0.5-3.3,2.1-4c1.6-0.7,3.3-0.3,4.4,1.2c2.3,3.1,4.2,6.4,5.7,9.9c2.4,5.7,3.6,11.7,3.6,18.9c-0.1,8.9-3,18-8.8,26.1
			C265.2,219.5,264.5,220.2,263.4,220.4z M288,194.4c-0.2,1.7-0.3,3.3-0.6,5c-1.5,10.8-5.6,20.4-12.3,29c-1.4,1.7-3.6,2.1-5.2,0.8
			c-1.6-1.2-1.9-3.4-0.5-5.2c4.9-6.2,8.4-13.1,10-20.8c3.5-16.2,0.2-30.9-9.9-44c-0.8-1.1-1.4-2.2-1-3.5c0.4-1.4,1.3-2.3,2.7-2.7
			c1.4-0.3,2.7,0.1,3.6,1.2c1.3,1.7,2.6,3.4,3.8,5.2c5.6,8.6,8.7,18,9.3,28.3c0,0.3,0.1,0.6,0.2,0.9C288,190.5,288,192.4,288,194.4z
			"/>
		<path class="st2" d="M451.6,261.5L244.7,468.4L63.3,287L94,256.3l16.7-1.5c0,0,199.4-6.5,212.9-13.3c13.6-6.8,6-102.2,6-102.2
			l70.2,70.2L451.6,261.5z"/>
		<g>
			<g>
				<path class="st3" d="M305.4,145.9c-13.4-3.5-27.2-5.7-40.9-7.7c-13.6-1.9-27.4-3.5-41.1-4c-15.9-0.6-31.9-0.4-47.8,0.6
					c-8.6,0.5-16,5.2-18.7,14.2c-2.4,8.3-4.9,16.8-5.3,25.4c-0.8,17-0.5,34-0.1,51c0.3,13.6,6.7,21.1,20.3,22.8
					c11.4,1.5,64.7,0,79.8-1.2c16.3-1.3,32.6-2.9,48.8-5.3c13-2,22.1-11.9,22.7-23.9c0.8-15.7,1.3-31.4,1.3-47.2
					C324.2,156,319.6,149.5,305.4,145.9z M243.1,227.5c-0.7,2.6-3.8,3.4-5.9,1.6c-3-2.5-5.9-5-8.9-7.6c-4.9-4.2-15.8-13.1-16.3-13.1
					c-6.6,0-23.8-0.6-24.7-2.8v-28.9c0.8-2.2,2.3-2.9,4.6-2.9c6.8,0.1,13.6,0,20.4,0c0.7,0,1.2-0.2,1.8-0.7
					c7.6-6.5,15.2-13,22.7-19.4c0.8-0.7,1.7-1.3,2.9-1.2c1.9,0,3.4,1.5,3.5,3.4c0,0.3,0,0.6,0,1c0,22.9,0,45.9,0,68.8
					C243.2,226.3,243.2,226.9,243.1,227.5z M250.4,209.8c-1.8-1.1-2.2-3.2-1.1-5.1c5.2-8.9,5.1-17.8-0.1-26.7
					c-1.2-2-0.7-4.1,1.1-5.2c1.8-1.1,3.9-0.5,5.1,1.5c3.3,5.2,4.9,11,5,17.1c0,6.1-1.6,11.7-4.9,17
					C254.4,210.3,252.2,210.9,250.4,209.8z M263.4,220.4c-1.5,0.3-3-0.3-3.8-1.5c-0.9-1.3-0.8-2.7,0.1-4.2c1.5-2.4,3.2-4.8,4.3-7.4
					c5.8-13.7,4.4-26.7-4.1-38.9c-0.4-0.6-0.8-1.2-0.9-1.9c-0.4-1.7,0.5-3.3,2.1-4c1.6-0.7,3.3-0.3,4.4,1.2c2.3,3.1,4.2,6.4,5.7,9.9
					c2.4,5.7,3.6,11.7,3.6,18.9c-0.1,8.9-3,18-8.8,26.1C265.2,219.5,264.5,220.2,263.4,220.4z M288,194.4c-0.2,1.7-0.3,3.3-0.6,5
					c-1.5,10.8-5.6,20.4-12.3,29c-1.4,1.7-3.6,2.1-5.2,0.8c-1.6-1.2-1.9-3.4-0.5-5.2c4.9-6.2,8.4-13.1,10-20.8
					c3.5-16.2,0.2-30.9-9.9-44c-0.8-1.1-1.4-2.2-1-3.5c0.4-1.4,1.3-2.3,2.7-2.7c1.4-0.3,2.7,0.1,3.6,1.2c1.3,1.7,2.6,3.4,3.8,5.2
					c5.6,8.6,8.7,18,9.3,28.3c0,0.3,0.1,0.6,0.2,0.9V194.4z M200,15.3C98,15.3,15.3,98,15.3,200S98,384.7,200,384.7
					S384.7,302,384.7,200S302,15.3,200,15.3z M333.8,234c-5.2,14.6-17.3,21.9-32.1,23.1c-34.4,2.7-128.4,4.6-140.9,4.1
					c-1.8-0.1-3.7,0.7-5.5,1.3c-17,6.1-34.1,12-50.9,18.5c-5.4,2.1-10.1,5.8-15.3,8.4c-14.1,7.2-24.6,3.8-30.8-10.7
					c-6.1-14.2-9.9-29.2-10.6-44.6c-0.8-17.1,7.3-27.9,23.1-34.5c11.2-4.7,22.3-9.9,33.2-15.4c13.5-6.8,20.7-18.8,25.7-32.6
					c5.1-14,12.7-26,28-30.5c17-5,34.5-3.7,51.9-3c9.7,0.4,19.5,0.9,29.2,2.2c24,3.1,48.2,5.6,71.9,10.5c20.6,4.3,26.5,13.4,27.8,36
					c0.8,13,1.7,26,1.1,39C338.9,215.2,337,225,333.8,234z"/>
			</g>
		</g>
	</g>
</g>
</svg>
