<svg xmlns="http://www.w3.org/2000/svg" viewBox="0 0 430 430">
<path class="st0" d="M263.1,292.1L263.1,292.1L263.1,292.1L263.1,292.1L263.1,292.1z M430,52.7C430,21.3,408.7,0,377.3,0c-54,0-108,0-162,0
	C161.1,0,107,0,52.8,0C21.3,0,0,21.2,0,52.6c0,108.2,0,216.3,0,324.5C0,408.9,21.2,430,53,430c108,0,216,0,324,0
	c31.8,0,53-21.1,53-52.8C430,269,430,160.8,430,52.7z M225,387h-19c-8.1-6.2-16.2-12.3-24.3-18.5c0.3-0.5,0.5-1,0.8-1.5h65.8
	c0.3,0.3,0.6,0.7,0.8,1C241.1,374.3,233,380.7,225,387z M248.3,355c-11,0-22,0-32.9,0c-11,0-22,0-32.9,0c-6.8,0-11-3.8-11-9.5
	c0.1-5.5,4.2-9.3,10.7-9.3c22.1-0.1,44.2-0.1,66.4,0c6.7,0,10.5,3.5,10.6,9.3C259.2,351.6,255.4,355,248.3,355z M261,318
	c-2.7,4.6-6.5,6.3-11.9,6.3c-22.6-0.2-45.2-0.1-67.8-0.1c-2,0-4.1,0-5.9-0.7c-3.9-1.5-6.1-5.9-5.3-10.2c0.8-4.3,4.1-7.3,8.7-7.3
	c24.4-0.1,48.9,0,73.3-0.1c4.6,0,6.7,3.1,8.9,6.2V318z M320.1,153c-1.5,19.1-7.1,37-17.1,53.5l0,0c-2.4,6.9-6.7,12.9-10.3,19.2
	c-6.7,11.6-13.8,23-19,35.4c-3.9,9.2-6.4,18.8-7,28.8l0,0c0.1,1,0.2,2,0.3,3h-25c0.1-0.4,0.1-0.7,0.2-1.1
	c-0.1-17.8,4.7-34.3,12.7-50c5.4-12.2,12.8-23.2,19.4-34.7c8.1-14,15.8-28.1,19.1-44.1c0.6-2.8,1.1-5.5,1.7-8.3
	c0.4-12.8,0-25.5-5-37.5c-1.6-3.8-3.4-7.5-5.1-11.2l0,0l0,0c-9-13.9-21.6-23.4-36.7-29.8c-0.1,0-0.2-0.1-0.3-0.1
	c-13.1-4.2-26.5-6.4-40.3-5.2c-32.8,2.7-62.5,22.2-70.1,57.3c-2.4,10.9-2,21.8-0.7,32.7l0,0l0,0c3.1,15.4,10.2,29.2,17.5,42.9l0,0
	c8.1,13,16.4,25.9,22.5,40l0,0l0,0c7.1,14,11,28.9,12,44.6c0.1,1.2,0.6,2.7-0.8,3.6l0,0c-0.1,0.3-0.1,0.6-0.2,0.9h-24
	c0.1-0.7,0.1-1.3,0.2-2l0,0c-0.3-11.2-3.5-21.7-7.7-31.9c-6.3-13.7-14.3-26.5-21.9-39.5c-7.6-13-14.5-26.3-19-40.7
	c-0.3-0.9-0.4-1.9-0.6-2.9c-2.5-6.8-3.4-13.9-4.2-21c0-1.7,0-3.3,0-5c0-2.7,0-5.4,0-8.1c0-1.7,0-3.3,0-5c0.5-6,1.2-11.9,2.9-17.7
	l0,0c8.4-33.8,30.1-55.2,62.1-67.1c8.7-3.2,17.9-5,27.1-6.1l10.8-0.1c0.4,0,0.8-0.1,1.1-0.1c1.7,0,3.4,0,5.1-0.1c1.7,0,3.3,0,5,0
	C241,47,256.5,51,270.7,59.1l0,0c14.2,7.6,25.9,17.8,34.2,31.8c9.3,13.8,13.7,29.3,14.7,45.8c0.1,0.7,0.2,1.3,0.3,2
	C320.2,143.6,320.1,148.3,320.1,153z"/>
<g>
	<path d="M261,318c-2.7,4.6-6.5,6.3-11.9,6.3c-22.6-0.2-45.2-0.1-67.8-0.1c-2,0-4.1,0-5.9-0.7c-3.9-1.5-6.1-5.9-5.3-10.2
		c0.8-4.3,4.1-7.3,8.7-7.3c24.4-0.1,48.9,0,73.3-0.1c4.6,0,6.7,3.1,8.9,6.2C261,314,261,316,261,318z"/>
	<path d="M206,387c-8.1-6.2-16.2-12.3-24.3-18.5c0.3-0.5,0.5-1,0.8-1.5c21.9,0,43.9,0,65.8,0c0.3,0.3,0.6,0.7,0.8,1
		c-8,6.3-16.1,12.7-24.1,19C218.7,387,212.3,387,206,387z"/>
	<path d="M215.4,355c-11,0-22,0-32.9,0c-6.8,0-11-3.8-11-9.5c0.1-5.5,4.2-9.3,10.7-9.3c22.1-0.1,44.2-0.1,66.4,0
		c6.7,0,10.5,3.5,10.6,9.3c0,6.1-3.8,9.5-10.8,9.5C237.4,355,226.4,355,215.4,355z"/>
</g>
<g>
	<path class="st1" d="M213.8,46c0.5,3-2.9,3.7-4.6,5c-14.1,10.6-28.3,21.1-42.4,31.7c-16.1,12.1-32,24.4-48.4,36.2c-1.1,0.8-2,1.9-3.3,2.1
		c-1.4,0.3-1.7-0.6-1.3-1.8c8.4-33.8,30.1-55.3,62.1-67.1c8.7-3.2,17.9-5,27.1-6.1"/>
	<path class="st2" d="M110.9,155c0-1.7,0-3.3,0-5c0-2.7,0-5.4,0-8.1c0-1.7,0-3.3,0-5c0.5-6,1.2-11.9,2.9-17.7c0.6,1.6,1.3,0.9,2.2,0.2
		c24.5-18.5,49-36.9,73.5-55.3c7.9-6,16.3-11.3,23.6-18.1c0.7-0.1,1.3-0.1,2-0.2c1.7,0,3.4,0,5.1-0.1c1.7,0,3.3,0,5,0
		c16.2,1.4,31.7,5.4,45.9,13.5c-1.8,4.1-18.2,16.5-22.6,17c-0.1,0-0.3-0.1-0.5-0.2c-13.1-4.2-26.5-6.4-40.3-5.2
		c-32.8,2.7-62.5,22.2-70.1,57.3c-2.4,10.9-2,21.8-0.7,32.7c-5.7,6.1-12.8,10.4-19.5,15.3c-0.7,0.5-1.6,0.4-2.3-0.2
		C112.5,169.3,111.6,162.2,110.9,155z"/>
	<path class="st3" d="M320.2,139c0,4.7,0,9.4,0,14.1c-1.5,19.1-7.1,37-17.1,53.5c-1.3,2-3,3.5-4.9,4.9c-12.5,9.5-25.3,18.5-37.7,28.2
		c-1.6,1.2-3.1,3.2-5.6,2.3c5.4-12.2,12.8-23.2,19.4-34.7c8.1-14,15.8-28.1,19.1-44.1c0.6-2.8,1.1-5.5,1.7-8.3
		c1.1-2.5,3.3-4,5.4-5.5c4.9-3.6,9.7-7.3,14.6-10.9c1.4-1,2.6-2.8,4.7-1.5C319.9,137.6,320,138.3,320.2,139z"/>
	<g>
		<path class="st4" d="M242,293c0.1-0.4,0.1-0.7,0.2-1.1c6.7-2.6,13.5-1.8,20.4-0.6c0.6,0.4,0.8,0.9,0.5,1.6C256,293,249,293,242,293z"/>
		<path class="st4" d="M263,293c0-0.3,0-0.6,0.1-0.9c0.6-1.8,1.8-2.4,3.6-2.1c0.1,1,0.2,2,0.3,3C265.7,293,264.3,293,263,293z"/>
		<path class="st4" d="M254.9,241.9c15.1-11.2,30.2-22.4,45.2-33.6c0.9-0.7,2-1.2,2.9-1.8c-2.4,6.9-6.7,12.9-10.3,19.2
			c-6.7,11.6-13.8,23-19,35.4c-3.9,9.2-6.4,18.8-7,28.8c-1.2,0.7-2.4,1.4-3.6,2.1c-7,0-14-0.1-20.9-0.1
			C242.1,274.2,246.8,257.6,254.9,241.9z"/>
	</g>
	<path class="st5" d="M319.8,136.9c-8.8,5.3-16.4,12.1-24.8,18c0.4-12.8,0-25.5-5-37.5c-1.6-3.8-3.4-7.5-5.1-11.2c0.9-3,3.6-4.3,5.8-5.8
		c4.7-3.1,8.5-7.9,14.3-9.2C314.4,105,318.8,120.4,319.8,136.9z"/>
	<path class="st6" d="M305.1,91.1c-6.7,5-13.5,10-20.2,15c-9.1-14-21.8-23.5-37-30c8.4-4.6,15.7-10.8,23-16.8C285.1,67,296.8,77.2,305.1,91.1z"
		/>
	<path class="st6" d="M115,176.1c6.9-3.6,12.4-9.1,18.8-13.5c1-0.6,1.7-1.6,3-1.7c3.1,15.4,10.2,29.2,17.5,42.9c0.1,0.5,0.1,1.1-0.2,1.4
		c-6.3,5.1-12.1,10.8-19.5,14.3c-7.6-13-14.5-26.3-19-40.7C115.3,178,115.2,177,115,176.1z"/>
	<path class="st5" d="M134.6,219.6c5.9-6.1,13.5-10.1,19.8-15.8c8.1,13,16.4,25.9,22.5,40c-5.9,6.2-12.6,11.5-20.4,15.2
		C150.2,245.4,142.2,232.6,134.6,219.6z"/>
	<g>
		<path class="st3" d="M164,293c0.1-0.7,0.1-1.3,0.2-2c7.1-1,14.3-0.5,21.5-0.2c1,0,1.9,0.5,2.5,1.3c-0.1,0.3-0.1,0.6-0.2,0.9
			C180,293,172,293,164,293z"/>
		<path class="st3" d="M156.5,259.1c6.8-5.1,13.6-10.1,20.4-15.2c7.1,14,11,28.9,12,44.6c0.1,1.2,0.6,2.7-0.8,3.6c-6.3,0-12.5-0.1-18.8-0.1
			c-1.8,0-3.6,0.1-5.2-1C163.9,279.8,160.7,269.3,156.5,259.1z"/>
	</g>
	<g>
		<path class="st7" d="M261,318c-2.7,4.6-6.5,6.3-11.9,6.3c-22.6-0.2-45.2-0.1-67.8-0.1c-2,0-4.1,0-5.9-0.7c-3.9-1.5-6.1-5.9-5.3-10.2
			c0.8-4.3,4.1-7.3,8.7-7.3c24.4-0.1,48.9,0,73.3-0.1c4.6,0,6.7,3.1,8.9,6.2C261,314,261,316,261,318z"/>
		<path class="st7" d="M206,387c-8.1-6.2-16.2-12.3-24.3-18.5c0.3-0.5,0.5-1,0.8-1.5c21.9,0,43.9,0,65.8,0c0.3,0.3,0.6,0.7,0.8,1
			c-8,6.3-16.1,12.7-24.1,19C218.7,387,212.3,387,206,387z"/>
		<path class="st7" d="M215.4,355c-11,0-22,0-32.9,0c-6.8,0-11-3.8-11-9.5c0.1-5.5,4.2-9.3,10.7-9.3c22.1-0.1,44.2-0.1,66.4,0
			c6.7,0,10.5,3.5,10.6,9.3c0,6.1-3.8,9.5-10.8,9.5C237.4,355,226.4,355,215.4,355z"/>
	</g>
</g>
</svg>
